<?xml version="1.0" encoding="utf-8"?>
<!-- Generator: Adobe Illustrator 22.0.1, SVG Export Plug-In . SVG Version: 6.00 Build 0)  -->
<svg version="1.1" id="Layer_1" xmlns="http://www.w3.org/2000/svg" xmlns:xlink="http://www.w3.org/1999/xlink" x="0px" y="0px"
	 viewBox="0 0 175 176" style="enable-background:new 0 0 175 176;" xml:space="preserve">
<path style="fill:#FFFFFF;" d="M87.5,9C43.6,9,8,44.6,8,88.5C8,132.4,43.6,168,87.5,168c43.9,0,79.5-35.6,79.5-79.5
	C167,44.6,131.4,9,87.5,9z M120.3,48.9c-2.7,2.9-6.9,3.3-9.4,1.1c-4.4-3.8-10.4-6.2-17.4-6.2c-8.1,0-16.1,3.2-22.3,8.3
	C64.9,57.3,60.3,64.3,59,72.2c-1.4,7.9,0.6,14.9,5,20.1c2.3,2.7,5.4,4.8,8.9,6.3l5.5-31.2c0.6-3.7,4.1-6.6,7.7-6.6
	c3.6,0,6.1,2.9,5.4,6.6l-5.8,33.1c6.2-0.4,12.2-2.5,17.3-6c3.2-2.3,7.3-1.7,9.1,1.2c1.7,2.9,0.5,7-2.9,9.2
	c-7.6,5.3-16.7,8.4-25.8,8.9l-3.1,17.4h32.3c3.7,0,6.1,3,5.5,6.6c-0.7,3.7-4.2,6.7-7.9,6.7H71.6c0,0,0-0.1-0.1-0.1
	c0,0,0,0.1-0.1,0.1c-3.6,0-6.1-3-5.4-6.7l4.5-25.3c-17.3-4.7-28.1-20.7-24.7-40.2C50,49.1,72.4,30.5,95.8,30.5
	c10,0,18.7,3.3,24.9,9.1C123.3,41.8,123,46,120.3,48.9z"/>
</svg>
